<svg width="63" height="93" viewBox="0 0 63 93" fill="none" xmlns="http://www.w3.org/2000/svg">
<path d="M56.3882 59.9043H49.699V58.3725H56.3882V59.9043Z" fill="#F8FAF8" style="fill:#F8FAF8;fill:color(display-p3 0.9725 0.9804 0.9725);fill-opacity:1;"/>
<path d="M42.6095 62.3034C42.6095 63.0047 42.6527 63.8044 42.7392 64.7026C41.9363 64.6656 40.5836 64.6472 38.6813 64.6472C36.1366 64.6472 34.2219 64.6656 32.9372 64.7026V64.3335C33.3572 64.3089 33.6598 64.2596 33.8451 64.1858C34.0304 64.112 34.1539 63.9705 34.2157 63.7614C34.2898 63.5522 34.3269 63.2139 34.3269 62.7463V55.4382C34.3269 54.9707 34.2898 54.6324 34.2157 54.4232C34.1539 54.214 34.0242 54.0726 33.8266 53.9987C33.6413 53.9249 33.3448 53.8757 32.9372 53.8511V53.482C34.2219 53.5189 36.1366 53.5374 38.6813 53.5374C40.4107 53.5374 41.6398 53.5189 42.3686 53.482C42.2822 54.3063 42.2389 55.0445 42.2389 55.6966C42.2389 56.1764 42.2575 56.5578 42.2945 56.8408H41.8683C41.683 55.7827 41.3619 55.0322 40.9048 54.5893C40.4478 54.1341 39.8177 53.9065 39.0148 53.9065H38.3292C38.008 53.9065 37.7672 53.9372 37.6066 53.9987C37.446 54.048 37.3286 54.1587 37.2545 54.3309C37.1927 54.4909 37.1619 54.7492 37.1619 55.106V58.8708H38.0327C38.601 58.8708 39.0272 58.674 39.3113 58.2803C39.6077 57.8743 39.8054 57.4067 39.9042 56.8777H40.3304C40.2933 57.296 40.2748 57.7758 40.2748 58.3172V59.0554C40.2748 59.609 40.3119 60.3349 40.386 61.233H39.9598C39.8733 60.6548 39.6757 60.1811 39.3669 59.812C39.0704 59.4306 38.6257 59.2399 38.0327 59.2399H37.1619V63.0785C37.1619 63.4353 37.1927 63.6998 37.2545 63.8721C37.3286 64.032 37.446 64.1428 37.6066 64.2043C37.7672 64.2535 38.008 64.2781 38.3292 64.2781H39.126C40.003 64.2781 40.6886 64.0259 41.1827 63.5214C41.6892 63.017 42.0413 62.1681 42.2389 60.9747H42.6651C42.628 61.3192 42.6095 61.7621 42.6095 62.3034Z" fill="#F8FAF8" style="fill:#F8FAF8;fill:color(display-p3 0.9725 0.9804 0.9725);fill-opacity:1;"/>
<path d="M26.6725 53.8511C26.2525 53.8757 25.9498 53.9249 25.7645 53.9987C25.5792 54.0726 25.4495 54.214 25.3754 54.4232C25.3137 54.6324 25.2828 54.9707 25.2828 55.4382V62.7463C25.2828 63.2139 25.3137 63.5522 25.3754 63.7614C25.4495 63.9705 25.5792 64.112 25.7645 64.1858C25.9498 64.2596 26.2525 64.3089 26.6725 64.3335V64.7026C26.0425 64.6656 25.1284 64.6472 23.9301 64.6472C22.6331 64.6472 21.6757 64.6656 21.0581 64.7026V64.3335C21.4781 64.3089 21.7807 64.2596 21.966 64.1858C22.1513 64.112 22.2748 63.9705 22.3366 63.7614C22.4107 63.5522 22.4478 63.2139 22.4478 62.7463V55.4382C22.4478 54.9707 22.4107 54.6324 22.3366 54.4232C22.2748 54.214 22.1451 54.0726 21.9475 53.9987C21.7622 53.9249 21.4657 53.8757 21.0581 53.8511V53.482C21.6634 53.5189 22.6207 53.5374 23.9301 53.5374C25.1284 53.5374 26.0425 53.5189 26.6725 53.482V53.8511Z" fill="#F8FAF8" style="fill:#F8FAF8;fill:color(display-p3 0.9725 0.9804 0.9725);fill-opacity:1;"/>
<path d="M10.5643 52.0056C10.1196 52.0302 9.79228 52.0794 9.58228 52.1533C9.38464 52.2271 9.24875 52.3686 9.17464 52.5777C9.10052 52.7869 9.06346 53.1252 9.06346 53.5927V62.9678C9.06346 63.3615 9.09434 63.6506 9.15611 63.8352C9.21787 64.0074 9.32287 64.1243 9.47111 64.1858C9.63169 64.2473 9.88493 64.2781 10.2308 64.2781H11.1388C11.9788 64.2781 12.7014 63.9028 13.3067 63.1523C13.9243 62.4018 14.3258 61.4053 14.5111 60.1627H14.9373C14.9002 60.581 14.8817 61.1223 14.8817 61.7867C14.8817 62.9678 14.9249 63.9398 15.0114 64.7026C14.1714 64.6656 12.757 64.6472 10.7682 64.6472C8.07522 64.6472 6.06169 64.6656 4.72758 64.7026V64.3335C5.13522 64.3089 5.43169 64.2596 5.61699 64.1858C5.81464 64.112 5.94434 63.9705 6.00611 63.7614C6.08022 63.5522 6.11728 63.2139 6.11728 62.7463V53.5927C6.11728 53.1252 6.08022 52.7869 6.00611 52.5777C5.94434 52.3686 5.81464 52.2271 5.61699 52.1533C5.43169 52.0794 5.13522 52.0302 4.72758 52.0056V51.6365C5.35758 51.6734 6.33346 51.6919 7.65522 51.6919C8.91522 51.6919 9.88493 51.6734 10.5643 51.6365V52.0056Z" fill="#F8FAF8" style="fill:#F8FAF8;fill:color(display-p3 0.9725 0.9804 0.9725);fill-opacity:1;"/>
<path d="M53.1826 69.2178C53.7508 69.2178 54.2326 69.2794 54.6279 69.4024C55.0355 69.5254 55.4185 69.6915 55.7767 69.9007C55.9126 69.9745 56.0299 70.036 56.1288 70.0852C56.2399 70.1344 56.3326 70.159 56.4067 70.159C56.5179 70.159 56.6044 70.0975 56.6661 69.9745C56.7279 69.8391 56.7773 69.63 56.8144 69.347H57.2405C57.1788 70.0852 57.1479 71.3648 57.1479 73.1856H56.7217C56.5858 72.0783 56.2276 71.211 55.647 70.5835C55.0664 69.9437 54.3067 69.6238 53.3679 69.6238C52.7502 69.6238 52.2499 69.7592 51.867 70.0298C51.4964 70.3005 51.3111 70.6512 51.3111 71.0818C51.3111 71.414 51.4099 71.7215 51.6076 72.0045C51.8176 72.2752 52.0894 72.5274 52.4229 72.7612C52.7564 72.9949 53.2444 73.3025 53.8867 73.6839L54.2944 73.9238C55.0355 74.3421 55.6408 74.7235 56.1102 75.068C56.5797 75.4002 56.9688 75.8001 57.2776 76.2676C57.5864 76.7228 57.7408 77.2395 57.7408 77.8178C57.7408 78.8267 57.3208 79.6018 56.4808 80.1431C55.6408 80.6844 54.5352 80.9551 53.1641 80.9551C52.5711 80.9551 52.0585 80.8875 51.6261 80.7521C51.1938 80.6291 50.7552 80.4568 50.3105 80.2354C50.0017 80.0877 49.7855 80.0139 49.662 80.0139C49.5508 80.0139 49.4644 80.0816 49.4026 80.2169C49.3408 80.34 49.2914 80.543 49.2544 80.8259H48.8282C48.8776 80.137 48.9023 78.636 48.9023 76.323H49.3285C49.4149 77.6271 49.767 78.6544 50.3847 79.4049C51.0147 80.1554 51.8979 80.5307 53.0344 80.5307C53.5902 80.5307 54.072 80.3892 54.4797 80.1062C54.8873 79.8232 55.0911 79.4049 55.0911 78.8513C55.0911 78.3591 54.8997 77.9347 54.5167 77.5779C54.1338 77.2211 53.4791 76.772 52.5526 76.2307C51.3791 75.5663 50.4773 74.9327 49.8473 74.3298C49.2296 73.727 48.9208 73.0195 48.9208 72.2075C48.9208 71.2479 49.3161 70.5097 50.1067 69.9929C50.9097 69.4762 51.9349 69.2178 53.1826 69.2178Z" fill="#F8FAF8" style="fill:#F8FAF8;fill:color(display-p3 0.9725 0.9804 0.9725);fill-opacity:1;"/>
<path d="M45.0776 69.4762C44.9911 70.4113 44.9479 71.2479 44.9479 71.9861C44.9479 72.675 44.9664 73.2164 45.0034 73.6101H44.5773C44.4043 72.675 44.1943 71.943 43.9473 71.414C43.7126 70.8849 43.4037 70.5035 43.0208 70.2698C42.6502 70.0237 42.1684 69.9007 41.5755 69.9007H41.0011V78.556C41.0011 79.0727 41.0505 79.448 41.1493 79.6817C41.2482 79.9155 41.4211 80.0754 41.6682 80.1616C41.9152 80.2477 42.3167 80.3031 42.8726 80.3277V80.6968C42.2055 80.6598 41.0937 80.6414 39.5373 80.6414C37.9684 80.6414 36.8876 80.6598 36.2946 80.6968V80.3277C36.8505 80.3031 37.252 80.2477 37.499 80.1616C37.7461 80.0754 37.919 79.9155 38.0179 79.6817C38.1167 79.448 38.1661 79.0727 38.1661 78.556V69.9007H37.5917C36.9987 69.9007 36.5108 70.0237 36.1279 70.2698C35.7573 70.5035 35.4484 70.8849 35.2014 71.414C34.9667 71.943 34.7629 72.675 34.5899 73.6101H34.1637C34.2008 73.2164 34.2193 72.675 34.2193 71.9861C34.2193 71.2479 34.1761 70.4113 34.0896 69.4762C35.1643 69.5131 36.9802 69.5316 39.5373 69.5316C42.1437 69.5316 43.9905 69.5131 45.0776 69.4762Z" fill="#F8FAF8" style="fill:#F8FAF8;fill:color(display-p3 0.9725 0.9804 0.9725);fill-opacity:1;"/>
<path d="M31.6611 79.9217C31.3646 80.2661 31.0311 80.5245 30.6605 80.6968C30.2899 80.869 29.8267 80.9551 29.2708 80.9551C28.5667 80.9551 28.0232 80.8198 27.6402 80.5491C27.2573 80.2785 27.0102 79.9155 26.8991 79.4603L26.3617 77.2826C26.2258 76.5936 26.0158 76.1384 25.7317 75.917C25.4599 75.6832 25.0523 75.5663 24.5088 75.5663H23.8973V78.7405C23.8973 79.2081 23.9282 79.5464 23.9899 79.7556C24.0641 79.9647 24.1938 80.1062 24.3791 80.18C24.5767 80.2538 24.8793 80.3031 25.287 80.3277V80.6968C24.5829 80.6598 23.5761 80.6414 22.2667 80.6414C21.1179 80.6414 20.2532 80.6598 19.6726 80.6968V80.3277C20.0926 80.3031 20.3952 80.2538 20.5805 80.18C20.7658 80.1062 20.8894 79.9647 20.9511 79.7556C21.0252 79.5464 21.0623 79.2081 21.0623 78.7405V71.4324C21.0623 70.9649 21.0252 70.6266 20.9511 70.4174C20.8894 70.2083 20.7658 70.0668 20.5805 69.9929C20.3952 69.9191 20.0926 69.8699 19.6726 69.8453V69.4762C20.2532 69.5131 21.0808 69.5316 22.1555 69.5316L24.2679 69.5131C24.5149 69.5008 24.7929 69.4947 25.1017 69.4947C26.757 69.4947 27.9923 69.7469 28.8076 70.2513C29.6352 70.7434 30.0491 71.4324 30.0491 72.3183C30.0491 73.0811 29.7217 73.7516 29.067 74.3298C28.4123 74.9081 27.3191 75.2772 25.7873 75.4371C25.9602 75.4371 26.1393 75.4556 26.3246 75.4925C27.2141 75.5909 27.912 75.7878 28.4185 76.083C28.9373 76.3783 29.277 76.8458 29.4376 77.4856L29.8267 79.1281C29.9132 79.4726 30.0182 79.7187 30.1417 79.8663C30.2652 80.0139 30.4196 80.0878 30.6049 80.0878C30.8643 80.0878 31.1299 79.9524 31.4017 79.6817L31.6611 79.9217ZM24.8608 69.8453C24.5891 69.8453 24.3852 69.8884 24.2494 69.9745C24.1135 70.0606 24.0208 70.2144 23.9714 70.4359C23.922 70.6573 23.8973 70.9895 23.8973 71.4324V75.1972H24.6941C25.6082 75.1972 26.232 74.9634 26.5655 74.4959C26.9114 74.0284 27.0844 73.3702 27.0844 72.5213C27.0844 71.6231 26.9114 70.9526 26.5655 70.5097C26.232 70.0668 25.6638 69.8453 24.8608 69.8453Z" fill="#F8FAF8" style="fill:#F8FAF8;fill:color(display-p3 0.9725 0.9804 0.9725);fill-opacity:1;"/>
<path d="M15.7816 79.1465C15.9421 79.5526 16.1274 79.8478 16.3374 80.0324C16.5474 80.2169 16.7513 80.3154 16.9489 80.3277V80.6968C16.2077 80.6598 15.2689 80.6414 14.1324 80.6414C12.8724 80.6414 11.9336 80.6598 11.316 80.6968V80.3277C11.7854 80.303 12.1189 80.2477 12.3166 80.1616C12.5142 80.0631 12.613 79.897 12.613 79.6633C12.613 79.4418 12.5389 79.1465 12.3907 78.7774L11.2789 75.7509H7.23949L6.75773 77.0242C6.41185 77.9101 6.23891 78.5929 6.23891 79.0727C6.23891 79.5279 6.37479 79.8478 6.64655 80.0324C6.93067 80.2046 7.34449 80.303 7.88802 80.3277V80.6968C7.04802 80.6598 6.28214 80.6414 5.59038 80.6414C5.02214 80.6414 4.55273 80.6598 4.18214 80.6968V80.3277C4.78744 80.2169 5.31861 79.571 5.77567 78.3899L10.0004 67.5938C10.1363 67.6061 10.3524 67.6123 10.6489 67.6123C10.9454 67.6123 11.1554 67.6061 11.2789 67.5938L15.7816 79.1465ZM11.1492 75.3818L9.31479 70.3989L7.38773 75.3818H11.1492Z" fill="#F8FAF8" style="fill:#F8FAF8;fill:color(display-p3 0.9725 0.9804 0.9725);fill-opacity:1;"/>
<path fill-rule="evenodd" clip-rule="evenodd" d="M28.828 0.785545C30.4557 -0.256597 32.5443 -0.2566 34.172 0.785544L59.4955 16.9994C60.9098 17.905 61.7647 19.4646 61.7647 21.1391V44.0287C61.7647 46.7467 59.5525 48.95 56.8235 48.95H6.17647C3.44753 48.95 1.23529 46.7467 1.23529 44.0287V21.1391C1.23529 19.4646 2.09021 17.905 3.50449 16.9994L28.828 0.785545ZM56.8235 21.1391L31.5 4.92523L6.17647 21.1391V44.0287H56.8235V21.1391Z" fill="#F8FAF8" style="fill:#F8FAF8;fill:color(display-p3 0.9725 0.9804 0.9725);fill-opacity:1;"/>
<path fill-rule="evenodd" clip-rule="evenodd" d="M29.0294 25.2333V1.99999H33.9706V25.2333H29.0294Z" fill="#F8FAF8" style="fill:#F8FAF8;fill:color(display-p3 0.9725 0.9804 0.9725);fill-opacity:1;"/>
<path fill-rule="evenodd" clip-rule="evenodd" d="M31.5 33.6588C33.1569 33.6588 34.5 32.3211 34.5 30.6709C34.5 29.0207 33.1569 27.683 31.5 27.683C29.8431 27.683 28.5 29.0207 28.5 30.6709C28.5 32.3211 29.8431 33.6588 31.5 33.6588ZM31.5 38.5801C35.8858 38.5801 39.4412 35.0391 39.4412 30.6709C39.4412 26.3028 35.8858 22.7617 31.5 22.7617C27.1142 22.7617 23.5588 26.3028 23.5588 30.6709C23.5588 35.0391 27.1142 38.5801 31.5 38.5801Z" fill="#F8FAF8" style="fill:#F8FAF8;fill:color(display-p3 0.9725 0.9804 0.9725);fill-opacity:1;"/>
</svg>
